# Blender 4.2.0
# www.blender.org
mtllib hollow cylinder.mtl
o Cylinder
v 0.000000 -1.000000 -1.000000
v 0.000000 1.000000 -1.000000
v 0.195090 -1.000000 -0.980785
v 0.195090 1.000000 -0.980785
v 0.382683 -1.000000 -0.923880
v 0.382683 1.000000 -0.923880
v 0.555570 -1.000000 -0.831470
v 0.555570 1.000000 -0.831470
v 0.707107 -1.000000 -0.707107
v 0.707107 1.000000 -0.707107
v 0.831470 -1.000000 -0.555570
v 0.831470 1.000000 -0.555570
v 0.923880 -1.000000 -0.382683
v 0.923880 1.000000 -0.382683
v 0.980785 -1.000000 -0.195090
v 0.980785 1.000000 -0.195090
v 1.000000 -1.000000 0.000000
v 1.000000 1.000000 0.000000
v 0.980785 -1.000000 0.195090
v 0.980785 1.000000 0.195090
v 0.923880 -1.000000 0.382683
v 0.923880 1.000000 0.382683
v 0.831470 -1.000000 0.555570
v 0.831470 1.000000 0.555570
v 0.707107 -1.000000 0.707107
v 0.707107 1.000000 0.707107
v 0.555570 -1.000000 0.831470
v 0.555570 1.000000 0.831470
v 0.382683 -1.000000 0.923880
v 0.382683 1.000000 0.923880
v 0.195090 -1.000000 0.980785
v 0.195090 1.000000 0.980785
v 0.000000 -1.000000 1.000000
v 0.000000 1.000000 1.000000
v -0.195090 -1.000000 0.980785
v -0.195090 1.000000 0.980785
v -0.382683 -1.000000 0.923880
v -0.382683 1.000000 0.923880
v -0.555570 -1.000000 0.831470
v -0.555570 1.000000 0.831470
v -0.707107 -1.000000 0.707107
v -0.707107 1.000000 0.707107
v -0.831470 -1.000000 0.555570
v -0.831470 1.000000 0.555570
v -0.923880 -1.000000 0.382683
v -0.923880 1.000000 0.382683
v -0.980785 -1.000000 0.195090
v -0.980785 1.000000 0.195090
v -1.000000 -1.000000 0.000000
v -1.000000 1.000000 0.000000
v -0.980785 -1.000000 -0.195090
v -0.980785 1.000000 -0.195090
v -0.923880 -1.000000 -0.382683
v -0.923880 1.000000 -0.382683
v -0.831470 -1.000000 -0.555570
v -0.831470 1.000000 -0.555570
v -0.707107 -1.000000 -0.707107
v -0.707107 1.000000 -0.707107
v -0.555570 -1.000000 -0.831470
v -0.555570 1.000000 -0.831470
v -0.382683 -1.000000 -0.923880
v -0.382683 1.000000 -0.923880
v -0.195090 -1.000000 -0.980785
v -0.195090 1.000000 -0.980785
v -0.711447 1.000000 -0.475374
v -0.475374 1.000000 -0.711447
v -0.605036 1.000000 -0.605036
v -0.166929 1.000000 -0.839209
v 0.166929 1.000000 -0.839209
v 0.000000 1.000000 -0.855650
v -0.327443 1.000000 -0.790518
v -0.855650 1.000000 0.000000
v -0.839209 1.000000 -0.166929
v -0.839209 1.000000 0.166929
v -0.711447 1.000000 0.475374
v -0.475374 1.000000 0.711447
v -0.605036 1.000000 0.605036
v -0.790518 1.000000 0.327443
v -0.166929 1.000000 0.839209
v 0.166929 1.000000 0.839209
v 0.000000 1.000000 0.855650
v 0.475374 1.000000 0.711447
v 0.711447 1.000000 0.475374
v 0.605036 1.000000 0.605036
v 0.327443 1.000000 0.790518
v 0.475374 1.000000 -0.711447
v 0.711447 1.000000 -0.475374
v 0.605036 1.000000 -0.605036
v 0.855650 1.000000 0.000000
v 0.839209 1.000000 0.166929
v 0.839209 1.000000 -0.166929
v 0.790518 1.000000 -0.327443
v -0.790518 1.000000 -0.327443
v -0.327443 1.000000 0.790518
v 0.327443 1.000000 -0.790518
v 0.790518 1.000000 0.327443
v 0.000000 -1.000000 -0.855650
v 0.327443 -1.000000 -0.790518
v 0.166929 -1.000000 -0.839209
v 0.605036 -1.000000 -0.605036
v 0.790518 -1.000000 -0.327443
v 0.711447 -1.000000 -0.475374
v 0.475374 -1.000000 -0.711447
v 0.327443 -1.000000 0.790518
v 0.605036 -1.000000 0.605036
v 0.475374 -1.000000 0.711447
v 0.790518 -1.000000 0.327443
v 0.855650 -1.000000 0.000000
v 0.839209 -1.000000 0.166929
v 0.711447 -1.000000 0.475374
v -0.790518 -1.000000 0.327443
v -0.605036 -1.000000 0.605036
v -0.711447 -1.000000 0.475374
v -0.327443 -1.000000 0.790518
v 0.000000 -1.000000 0.855650
v -0.166929 -1.000000 0.839209
v -0.475374 -1.000000 0.711447
v -0.855650 -1.000000 0.000000
v -0.790518 -1.000000 -0.327443
v -0.839209 -1.000000 -0.166929
v -0.605036 -1.000000 -0.605036
v -0.327443 -1.000000 -0.790518
v -0.475374 -1.000000 -0.711447
v -0.711447 -1.000000 -0.475374
v 0.166929 -1.000000 0.839209
v 0.839209 -1.000000 -0.166929
v -0.839209 -1.000000 0.166929
v -0.166929 -1.000000 -0.839209
vn 0.0980 -0.0000 -0.9952
vn 0.2903 -0.0000 -0.9569
vn 0.4714 -0.0000 -0.8819
vn 0.6344 -0.0000 -0.7730
vn 0.7730 -0.0000 -0.6344
vn 0.8819 -0.0000 -0.4714
vn 0.9569 -0.0000 -0.2903
vn 0.9952 -0.0000 -0.0980
vn 0.9952 -0.0000 0.0980
vn 0.9569 -0.0000 0.2903
vn 0.8819 -0.0000 0.4714
vn 0.7730 -0.0000 0.6344
vn 0.6344 -0.0000 0.7730
vn 0.4714 -0.0000 0.8819
vn 0.2903 -0.0000 0.9569
vn 0.0980 -0.0000 0.9952
vn -0.0980 -0.0000 0.9952
vn -0.2903 -0.0000 0.9569
vn -0.4714 -0.0000 0.8819
vn -0.6344 -0.0000 0.7730
vn -0.7730 -0.0000 0.6344
vn -0.8819 -0.0000 0.4714
vn -0.9569 -0.0000 0.2903
vn -0.9952 -0.0000 0.0980
vn -0.9952 -0.0000 -0.0980
vn -0.9569 -0.0000 -0.2903
vn -0.8819 -0.0000 -0.4714
vn -0.7730 -0.0000 -0.6344
vn -0.6344 -0.0000 -0.7730
vn -0.4714 -0.0000 -0.8819
vn -0.0000 1.0000 -0.0000
vn -0.2903 -0.0000 -0.9569
vn -0.0980 -0.0000 -0.9952
vn -0.0000 -1.0000 -0.0000
vt 1.000000 0.500000
vt 1.000000 1.000000
vt 0.968750 1.000000
vt 0.968750 0.500000
vt 0.937500 1.000000
vt 0.937500 0.500000
vt 0.906250 1.000000
vt 0.906250 0.500000
vt 0.875000 1.000000
vt 0.875000 0.500000
vt 0.843750 1.000000
vt 0.843750 0.500000
vt 0.812500 1.000000
vt 0.812500 0.500000
vt 0.781250 1.000000
vt 0.781250 0.500000
vt 0.750000 1.000000
vt 0.750000 0.500000
vt 0.718750 1.000000
vt 0.718750 0.500000
vt 0.687500 1.000000
vt 0.687500 0.500000
vt 0.656250 1.000000
vt 0.656250 0.500000
vt 0.625000 1.000000
vt 0.625000 0.500000
vt 0.593750 1.000000
vt 0.593750 0.500000
vt 0.562500 1.000000
vt 0.562500 0.500000
vt 0.531250 1.000000
vt 0.531250 0.500000
vt 0.500000 1.000000
vt 0.500000 0.500000
vt 0.468750 1.000000
vt 0.468750 0.500000
vt 0.437500 1.000000
vt 0.437500 0.500000
vt 0.406250 1.000000
vt 0.406250 0.500000
vt 0.375000 1.000000
vt 0.375000 0.500000
vt 0.343750 1.000000
vt 0.343750 0.500000
vt 0.312500 1.000000
vt 0.312500 0.500000
vt 0.281250 1.000000
vt 0.281250 0.500000
vt 0.250000 1.000000
vt 0.250000 0.500000
vt 0.218750 1.000000
vt 0.218750 0.500000
vt 0.187500 1.000000
vt 0.187500 0.500000
vt 0.156250 1.000000
vt 0.156250 0.500000
vt 0.125000 1.000000
vt 0.125000 0.500000
vt 0.093750 1.000000
vt 0.093750 0.500000
vt 0.062500 1.000000
vt 0.062500 0.500000
vt 0.341844 0.028269
vt 0.383337 0.050447
vt 0.419706 0.080294
vt 0.449553 0.116663
vt 0.471731 0.158156
vt 0.485388 0.203178
vt 0.490000 0.250000
vt 0.485388 0.296822
vt 0.471731 0.341844
vt 0.449553 0.383337
vt 0.419706 0.419706
vt 0.383337 0.449553
vt 0.341844 0.471731
vt 0.296822 0.485388
vt 0.250000 0.490000
vt 0.203178 0.485388
vt 0.158156 0.471731
vt 0.116663 0.449553
vt 0.080294 0.419706
vt 0.050447 0.383337
vt 0.028269 0.341844
vt 0.014612 0.296822
vt 0.010000 0.250000
vt 0.014612 0.203178
vt 0.028269 0.158156
vt 0.050447 0.116663
vt 0.080294 0.080294
vt 0.116663 0.050447
vt 0.158156 0.028269
vt 0.171414 0.060276
vt 0.135910 0.079253
vt 0.104791 0.104791
vt 0.079253 0.135910
vt 0.060276 0.171414
vt 0.048590 0.209937
vt 0.044644 0.250000
vt 0.048590 0.290063
vt 0.060276 0.328587
vt 0.079253 0.364090
vt 0.104791 0.395209
vt 0.135910 0.420747
vt 0.171414 0.439724
vt 0.209937 0.451410
vt 0.250000 0.455356
vt 0.290063 0.451410
vt 0.328586 0.439724
vt 0.364090 0.420747
vt 0.395209 0.395209
vt 0.420747 0.364090
vt 0.439724 0.328586
vt 0.451410 0.290063
vt 0.455356 0.250000
vt 0.451410 0.209937
vt 0.439724 0.171414
vt 0.420747 0.135910
vt 0.395209 0.104791
vt 0.364090 0.079253
vt 0.328586 0.060276
vt 0.203178 0.014612
vt 0.250000 0.010000
vt 0.296822 0.014612
vt 0.290063 0.048590
vt 0.250000 0.044644
vt 0.209937 0.048590
vt 0.031250 1.000000
vt 0.031250 0.500000
vt 0.000000 1.000000
vt 0.000000 0.500000
vt 0.951411 0.290063
vt 0.985388 0.296822
vt 0.990000 0.250000
vt 0.985388 0.203178
vt 0.971731 0.158156
vt 0.949553 0.116663
vt 0.919706 0.080294
vt 0.883337 0.050447
vt 0.841844 0.028269
vt 0.796822 0.014612
vt 0.750000 0.010000
vt 0.703178 0.014612
vt 0.658156 0.028269
vt 0.616663 0.050447
vt 0.580294 0.080294
vt 0.550447 0.116663
vt 0.528269 0.158156
vt 0.514612 0.203178
vt 0.510000 0.250000
vt 0.514612 0.296822
vt 0.528269 0.341844
vt 0.550447 0.383337
vt 0.580294 0.419706
vt 0.616663 0.449553
vt 0.658156 0.471731
vt 0.703178 0.485388
vt 0.709937 0.451410
vt 0.671414 0.439724
vt 0.635910 0.420747
vt 0.604791 0.395209
vt 0.579253 0.364090
vt 0.560276 0.328586
vt 0.548590 0.290063
vt 0.544644 0.250000
vt 0.548590 0.209937
vt 0.560276 0.171414
vt 0.579253 0.135910
vt 0.604791 0.104791
vt 0.635910 0.079253
vt 0.671414 0.060276
vt 0.709937 0.048590
vt 0.750000 0.044644
vt 0.790063 0.048590
vt 0.828586 0.060276
vt 0.864090 0.079253
vt 0.895209 0.104791
vt 0.920748 0.135910
vt 0.939724 0.171414
vt 0.951410 0.209937
vt 0.955356 0.250000
vt 0.750000 0.490000
vt 0.796822 0.485388
vt 0.841844 0.471731
vt 0.883337 0.449553
vt 0.919706 0.419706
vt 0.949553 0.383337
vt 0.971731 0.341844
vt 0.939724 0.328586
vt 0.920748 0.364090
vt 0.895209 0.395209
vt 0.864090 0.420748
vt 0.828586 0.439724
vt 0.790063 0.451410
vt 0.750000 0.455356
vt 0.968750 0.541902
vt 0.968750 0.958098
vt 1.000000 0.958098
vt 1.000000 0.541902
vt 0.937500 0.541902
vt 0.937500 0.958098
vt 0.906250 0.541902
vt 0.906250 0.958098
vt 0.875000 0.541902
vt 0.875000 0.958098
vt 0.843750 0.958098
vt 0.843750 0.541902
vt 0.812500 0.958098
vt 0.812500 0.541902
vt 0.781250 0.958098
vt 0.781250 0.541902
vt 0.750000 0.958098
vt 0.750000 0.541902
vt 0.718750 0.958098
vt 0.718750 0.541902
vt 0.687500 0.958098
vt 0.687500 0.541902
vt 0.656250 0.958098
vt 0.656250 0.541902
vt 0.625000 0.958098
vt 0.625000 0.541902
vt 0.593750 0.958098
vt 0.593750 0.541902
vt 0.562500 0.958098
vt 0.562500 0.541902
vt 0.531250 0.958098
vt 0.531250 0.541902
vt 0.500000 0.958098
vt 0.500000 0.541902
vt 0.468750 0.958098
vt 0.468750 0.541902
vt 0.437500 0.958098
vt 0.437500 0.541902
vt 0.406250 0.958098
vt 0.406250 0.541902
vt 0.375000 0.958098
vt 0.375000 0.541902
vt 0.343750 0.541902
vt 0.343750 0.958098
vt 0.312500 0.541902
vt 0.312500 0.958098
vt 0.281250 0.541902
vt 0.281250 0.958098
vt 0.250000 0.541902
vt 0.250000 0.958098
vt 0.218750 0.541902
vt 0.218750 0.958098
vt 0.187500 0.541902
vt 0.187500 0.958098
vt 0.156250 0.541902
vt 0.156250 0.958098
vt 0.125000 0.541902
vt 0.125000 0.958098
vt 0.093750 0.541902
vt 0.093750 0.958098
vt 0.062500 0.541902
vt 0.062500 0.958098
vt 0.031250 0.541902
vt 0.031250 0.958098
vt 0.000000 0.541902
vt 0.000000 0.958098
s 0
f 1/1/1 2/2/1 4/3/1 3/4/1
f 3/4/2 4/3/2 6/5/2 5/6/2
f 5/6/3 6/5/3 8/7/3 7/8/3
f 7/8/4 8/7/4 10/9/4 9/10/4
f 9/10/5 10/9/5 12/11/5 11/12/5
f 11/12/6 12/11/6 14/13/6 13/14/6
f 13/14/7 14/13/7 16/15/7 15/16/7
f 15/16/8 16/15/8 18/17/8 17/18/8
f 17/18/9 18/17/9 20/19/9 19/20/9
f 19/20/10 20/19/10 22/21/10 21/22/10
f 21/22/11 22/21/11 24/23/11 23/24/11
f 23/24/12 24/23/12 26/25/12 25/26/12
f 25/26/13 26/25/13 28/27/13 27/28/13
f 27/28/14 28/27/14 30/29/14 29/30/14
f 29/30/15 30/29/15 32/31/15 31/32/15
f 31/32/16 32/31/16 34/33/16 33/34/16
f 33/34/17 34/33/17 36/35/17 35/36/17
f 35/36/18 36/35/18 38/37/18 37/38/18
f 37/38/19 38/37/19 40/39/19 39/40/19
f 39/40/20 40/39/20 42/41/20 41/42/20
f 41/42/21 42/41/21 44/43/21 43/44/21
f 43/44/22 44/43/22 46/45/22 45/46/22
f 45/46/23 46/45/23 48/47/23 47/48/23
f 47/48/24 48/47/24 50/49/24 49/50/24
f 49/50/25 50/49/25 52/51/25 51/52/25
f 51/52/26 52/51/26 54/53/26 53/54/26
f 53/54/27 54/53/27 56/55/27 55/56/27
f 55/56/28 56/55/28 58/57/28 57/58/28
f 57/58/29 58/57/29 60/59/29 59/60/29
f 59/60/30 60/59/30 62/61/30 61/62/30
f 30/63/31 28/64/31 26/65/31 24/66/31 22/67/31 20/68/31 18/69/31 16/70/31 14/71/31 12/72/31 10/73/31 8/74/31 6/75/31 4/76/31 2/77/31 64/78/31 62/79/31 60/80/31 58/81/31 56/82/31 54/83/31 52/84/31 50/85/31 48/86/31 46/87/31 44/88/31 42/89/31 40/90/31 38/91/31 94/92/31 76/93/31 77/94/31 75/95/31 78/96/31 74/97/31 72/98/31 73/99/31 93/100/31 65/101/31 67/102/31 66/103/31 71/104/31 68/105/31 70/106/31 69/107/31 95/108/31 86/109/31 88/110/31 87/111/31 92/112/31 91/113/31 89/114/31 90/115/31 96/116/31 83/117/31 84/118/31 82/119/31 85/120/31
f 94/92/31 38/91/31 36/121/31 34/122/31 32/123/31 30/63/31 85/120/31 80/124/31 81/125/31 79/126/31
f 61/62/32 62/61/32 64/127/32 63/128/32
f 63/128/33 64/127/33 2/129/33 1/130/33
f 126/131/34 15/132/34 17/133/34 19/134/34 21/135/34 23/136/34 25/137/34 27/138/34 29/139/34 31/140/34 33/141/34 35/142/34 37/143/34 39/144/34 41/145/34 43/146/34 45/147/34 47/148/34 49/149/34 51/150/34 53/151/34 55/152/34 57/153/34 59/154/34 61/155/34 63/156/34 128/157/34 122/158/34 123/159/34 121/160/34 124/161/34 119/162/34 120/163/34 118/164/34 127/165/34 111/166/34 113/167/34 112/168/34 117/169/34 114/170/34 116/171/34 115/172/34 125/173/34 104/174/34 106/175/34 105/176/34 110/177/34 107/178/34 109/179/34 108/180/34
f 128/157/34 63/156/34 1/181/34 3/182/34 5/183/34 7/184/34 9/185/34 11/186/34 13/187/34 15/132/34 126/131/34 101/188/34 102/189/34 100/190/34 103/191/34 98/192/34 99/193/34 97/194/34
f 99/195/17 69/196/17 70/197/17 97/198/17
f 98/199/18 95/200/18 69/196/18 99/195/18
f 103/201/19 86/202/19 95/200/19 98/199/19
f 100/203/20 88/204/20 86/202/20 103/201/20
f 87/205/21 88/204/21 100/203/21 102/206/21
f 92/207/22 87/205/22 102/206/22 101/208/22
f 91/209/23 92/207/23 101/208/23 126/210/23
f 89/211/24 91/209/24 126/210/24 108/212/24
f 90/213/25 89/211/25 108/212/25 109/214/25
f 96/215/26 90/213/26 109/214/26 107/216/26
f 83/217/27 96/215/27 107/216/27 110/218/27
f 84/219/28 83/217/28 110/218/28 105/220/28
f 82/221/29 84/219/29 105/220/29 106/222/29
f 85/223/30 82/221/30 106/222/30 104/224/30
f 80/225/32 85/223/32 104/224/32 125/226/32
f 81/227/33 80/225/33 125/226/33 115/228/33
f 79/229/1 81/227/1 115/228/1 116/230/1
f 94/231/2 79/229/2 116/230/2 114/232/2
f 76/233/3 94/231/3 114/232/3 117/234/3
f 77/235/4 76/233/4 117/234/4 112/236/4
f 113/237/5 75/238/5 77/235/5 112/236/5
f 111/239/6 78/240/6 75/238/6 113/237/6
f 127/241/7 74/242/7 78/240/7 111/239/7
f 118/243/8 72/244/8 74/242/8 127/241/8
f 120/245/9 73/246/9 72/244/9 118/243/9
f 119/247/10 93/248/10 73/246/10 120/245/10
f 124/249/11 65/250/11 93/248/11 119/247/11
f 121/251/12 67/252/12 65/250/12 124/249/12
f 123/253/13 66/254/13 67/252/13 121/251/13
f 122/255/14 71/256/14 66/254/14 123/253/14
f 128/257/15 68/258/15 71/256/15 122/255/15
f 97/259/16 70/260/16 68/258/16 128/257/16
